<?xml version="1.0" encoding="UTF-8"?>
<svg id="Layer_1" data-name="Layer 1" xmlns="http://www.w3.org/2000/svg" viewBox="0 0 400 100">
  <defs>
    <style>
      .cls-1 {
        fill: #fff;
      }

      .cls-2 {
        fill: #3da147;
      }
    </style>
  </defs>
  <path class="cls-2" d="M371.7,82.32h21.4l-21.4-33.74,21.9-31.46h-21.39l-20.77,31.46,20.26,33.74Z"/>
  <g>
    <polygon class="cls-1" points="353.49 23.39 332.1 23.39 345.96 41.8 322.26 41.8 322.26 57.06 345.15 57.06 332.16 75.71 353.07 75.71 371.33 48.57 353.49 23.39"/>
    <path class="cls-1" d="M297.99,35.99c-3.31-1.69-7.11-2.53-11.4-2.53s-8.2.87-11.56,2.6c-3.31,1.74-5.9,4.22-7.76,7.44-1.86,3.17-2.79,6.94-2.79,11.31s.93,8.16,2.79,11.38c1.91,3.22,4.53,5.7,7.84,7.44,3.36,1.74,7.19,2.6,11.48,2.6,3.57,0,6.83-.64,9.77-1.93,2.95-1.29,5.38-3.05,7.29-5.28,1.97-2.28,3.28-4.86,3.96-7.74h-16.21c-1.09,2.18-2.9,3.27-5.43,3.27-1.81,0-3.31-.55-4.5-1.64-1.14-1.14-1.78-2.85-1.94-5.13h28.78c.15-1.14.23-2.28.23-3.42,0-4.27-.93-7.96-2.79-11.08-1.86-3.17-4.45-5.6-7.76-7.29ZM279.6,50.72c.36-1.88,1.14-3.3,2.33-4.24,1.19-.99,2.72-1.49,4.58-1.49s3.41.52,4.65,1.56c1.24.99,1.86,2.38,1.86,4.17h-13.42Z"/>
    <path class="cls-1" d="M243.09,39.78c-1.19-1.93-2.9-3.47-5.12-4.61-2.17-1.14-4.73-1.71-7.68-1.71-3.46,0-6.62.87-9.46,2.6-2.79,1.74-5.02,4.22-6.67,7.44-1.6,3.22-2.4,6.99-2.4,11.31s.8,8.11,2.4,11.38c1.66,3.22,3.88,5.7,6.67,7.44,2.84,1.74,6,2.6,9.46,2.6,2.95,0,5.51-.57,7.68-1.71,2.22-1.14,3.93-2.68,5.12-4.61v5.36c0,5.55-2.59,8.33-7.76,8.33-1.97,0-3.57-.37-4.81-1.12-1.24-.74-2.02-1.79-2.33-3.12h-14.97c.57,5.21,2.87,9.32,6.9,12.35,4.03,3.03,9.41,4.54,16.14,4.54,5.02,0,9.15-.94,12.41-2.83,3.31-1.88,5.74-4.41,7.29-7.59,1.55-3.12,2.33-6.65,2.33-10.56v-41.29h-15.2v5.8ZM240.76,61.21c-1.5,1.54-3.36,2.31-5.59,2.31s-4.16-.77-5.66-2.31c-1.5-1.59-2.25-3.72-2.25-6.4s.75-4.84,2.25-6.32c1.5-1.54,3.39-2.31,5.66-2.31s4.09.77,5.59,2.31c1.55,1.54,2.33,3.64,2.33,6.32s-.78,4.86-2.33,6.4Z"/>
    <path class="cls-1" d="M194.74,41.34v-7.36h-15.2v41.73h15.2v-18.23c0-3.07.8-5.23,2.4-6.47,1.6-1.24,4.06-1.86,7.37-1.86h4.27v-15.55c-2.79,0-5.4.69-7.83,2.08-2.43,1.39-4.5,3.27-6.21,5.65Z"/>
    <path class="cls-1" d="M162.76,35.99c-3.31-1.69-7.11-2.53-11.4-2.53s-8.2.87-11.56,2.6c-3.31,1.74-5.9,4.22-7.76,7.44-1.86,3.17-2.79,6.94-2.79,11.31s.93,8.16,2.79,11.38c1.91,3.22,4.53,5.7,7.83,7.44,3.36,1.74,7.19,2.6,11.48,2.6,3.57,0,6.83-.64,9.77-1.93,2.95-1.29,5.38-3.05,7.29-5.28,1.97-2.28,3.28-4.86,3.96-7.74h-16.21c-1.09,2.18-2.9,3.27-5.43,3.27-1.81,0-3.31-.55-4.5-1.64-1.14-1.14-1.78-2.85-1.94-5.13h28.78c.16-1.14.23-2.28.23-3.42,0-4.27-.93-7.96-2.79-11.08-1.86-3.17-4.45-5.6-7.76-7.29ZM144.37,50.72c.36-1.88,1.14-3.3,2.33-4.24,1.19-.99,2.72-1.49,4.58-1.49s3.41.52,4.65,1.56c1.24.99,1.86,2.38,1.86,4.17h-13.42Z"/>
    <path class="cls-1" d="M105.79,33.61c-3.05,0-5.84.72-8.38,2.16-2.53,1.39-4.58,3.22-6.13,5.5-1.45-2.43-3.44-4.31-5.97-5.65-2.48-1.34-5.33-2.01-8.53-2.01-2.79,0-5.28.55-7.45,1.64-2.12,1.04-3.85,2.45-5.2,4.24v-5.5h-15.2v41.73h15.2v-22.39c0-2.23.65-3.97,1.94-5.21,1.29-1.24,3.08-1.86,5.35-1.86s3.96.62,5.2,1.86c1.29,1.24,1.94,2.98,1.94,5.21v22.39h15.2v-22.39c0-2.23.65-3.97,1.94-5.21,1.29-1.24,3.05-1.86,5.28-1.86s3.98.62,5.28,1.86c1.29,1.24,1.94,2.98,1.94,5.21v22.39h15.2v-24.33c0-5.51-1.58-9.84-4.73-13.02-3.1-3.17-7.4-4.76-12.88-4.76Z"/>
    <polygon class="cls-1" points="6.43 75.71 41.41 75.71 41.41 64.03 21.63 64.03 21.63 54.59 35.12 54.59 39.09 43.5 21.63 43.5 21.63 34.95 41.41 34.95 41.41 23.27 6.43 23.27 6.43 75.71"/>
  </g>
</svg>