<svg width="807" height="172" viewBox="0 0 807 172" fill="none" xmlns="http://www.w3.org/2000/svg">
<path d="M760.981 141.648H805.557L760.981 68.3422L806.611 0H762.035L718.763 68.3422L760.981 141.648Z" fill="#3DA229"/>
<path d="M741.788 99.6746L722.163 127.304H678.6L717.99 68.3423L678.479 13.6351H723.055L741.788 41.6519L760.208 68.3423L741.788 99.6746Z" fill="white"/>
<path d="M724.289 53.6248V86.7806H657.977V53.6248H724.289Z" fill="white"/>
<path d="M629.392 80.9209C629.392 83.399 629.23 85.8771 628.907 88.3552H568.948C569.271 93.3114 570.618 97.0285 572.988 99.5066C575.466 101.877 578.591 103.062 582.362 103.062C587.641 103.062 591.412 100.692 593.675 95.9511H627.452C626.052 102.2 623.304 107.803 619.21 112.759C615.223 117.607 610.16 121.432 604.018 124.234C597.877 127.035 591.089 128.436 583.655 128.436C574.712 128.436 566.739 126.55 559.736 122.779C552.84 119.008 547.399 113.621 543.413 106.618C539.534 99.6143 537.595 91.372 537.595 81.8906C537.595 72.4092 539.534 64.2207 543.413 57.3252C547.291 50.3219 552.679 44.9347 559.574 41.1637C566.577 37.3927 574.604 35.5072 583.655 35.5072C592.597 35.5072 600.517 37.3388 607.412 41.0021C614.308 44.6654 619.695 49.9448 623.574 56.8403C627.452 63.6281 629.392 71.655 629.392 80.9209ZM597.069 73.0018C597.069 69.1231 595.776 66.1062 593.19 63.9514C590.604 61.6888 587.372 60.5575 583.493 60.5575C579.614 60.5575 576.436 61.6349 573.958 63.7898C571.48 65.8369 569.864 68.9076 569.109 73.0018H597.069Z" fill="white"/>
<path d="M466.373 35.5072C472.514 35.5072 477.848 36.7463 482.373 39.2243C487.006 41.7024 490.562 45.0425 493.04 49.2444V36.6385H524.716V126.335C524.716 134.846 523.1 142.496 519.868 149.284C516.635 156.179 511.571 161.674 504.676 165.769C497.888 169.863 489.269 171.91 478.817 171.91C464.811 171.91 453.606 168.624 445.202 162.051C436.798 155.479 432.003 146.536 430.818 135.223H462.01C462.656 138.132 464.272 140.395 466.858 142.011C469.444 143.627 472.784 144.435 476.878 144.435C487.652 144.435 493.04 138.402 493.04 126.335V114.698C490.562 118.9 487.006 122.24 482.373 124.718C477.848 127.197 472.514 128.436 466.373 128.436C459.154 128.436 452.582 126.55 446.656 122.779C440.838 119.008 436.205 113.621 432.757 106.618C429.417 99.5066 427.747 91.2642 427.747 81.8906C427.747 72.5169 429.417 64.3285 432.757 57.3252C436.205 50.3219 440.838 44.9347 446.656 41.1637C452.582 37.3927 459.154 35.5072 466.373 35.5072ZM493.04 81.8906C493.04 76.0725 491.423 71.4934 488.191 68.1534C485.067 64.8133 481.188 63.1433 476.555 63.1433C471.814 63.1433 467.882 64.8133 464.757 68.1534C461.632 71.3856 460.07 75.9647 460.07 81.8906C460.07 87.7087 461.632 92.3417 464.757 95.7895C467.882 99.1295 471.814 100.8 476.555 100.8C481.188 100.8 485.067 99.1295 488.191 95.7895C491.423 92.4494 493.04 87.8165 493.04 81.8906Z" fill="white"/>
<path d="M392.311 52.6384C395.866 47.4667 400.176 43.3725 405.24 40.3557C410.304 37.3389 415.745 35.8304 421.563 35.8304V69.6079H412.674C405.779 69.6079 400.661 70.9547 397.321 73.6483C393.981 76.3418 392.311 81.0287 392.311 87.7087V127.304H360.634V36.6385H392.311V52.6384Z" fill="white"/>
<path d="M347.671 80.9209C347.671 83.399 347.509 85.8771 347.186 88.3552H287.227C287.55 93.3114 288.897 97.0285 291.268 99.5066C293.746 101.877 296.87 103.062 300.641 103.062C305.921 103.062 309.692 100.692 311.954 95.9511H345.732C344.331 102.2 341.584 107.803 337.489 112.759C333.503 117.607 328.439 121.432 322.298 124.234C316.156 127.035 309.368 128.436 301.934 128.436C292.991 128.436 285.019 126.55 278.015 122.779C271.12 119.008 265.679 113.621 261.692 106.618C257.813 99.6143 255.874 91.372 255.874 81.8906C255.874 72.4092 257.813 64.2207 261.692 57.3252C265.571 50.3219 270.958 44.9347 277.854 41.1637C284.857 37.3927 292.884 35.5072 301.934 35.5072C310.877 35.5072 318.796 37.3388 325.692 41.0021C332.587 44.6654 337.974 49.9448 341.853 56.8403C345.732 63.6281 347.671 71.655 347.671 80.9209ZM315.348 73.0018C315.348 69.1231 314.055 66.1062 311.469 63.9514C308.884 61.6888 305.651 60.5575 301.773 60.5575C297.894 60.5575 294.715 61.6349 292.237 63.7898C289.759 65.8369 288.143 68.9076 287.389 73.0018H315.348Z" fill="white"/>
<path d="M207.004 35.8304C218.425 35.8304 227.368 39.2782 233.832 46.1738C240.405 53.0693 243.691 62.4969 243.691 74.4563V127.304H212.014V78.6583C212.014 73.8099 210.668 70.0389 207.974 67.3453C205.28 64.6517 201.617 63.3049 196.984 63.3049C192.351 63.3049 188.688 64.6517 185.994 67.3453C183.301 70.0389 181.954 73.8099 181.954 78.6583V127.304H150.278V78.6583C150.278 73.8099 148.931 70.0389 146.237 67.3453C143.651 64.6517 140.042 63.3049 135.409 63.3049C130.668 63.3049 126.951 64.6517 124.258 67.3453C121.564 70.0389 120.217 73.8099 120.217 78.6583V127.304H88.5409V36.6385H120.217V48.598C123.019 44.7193 126.628 41.6486 131.045 39.386C135.571 37.0156 140.742 35.8304 146.561 35.8304C153.241 35.8304 159.166 37.285 164.338 40.194C169.618 43.1031 173.766 47.1973 176.782 52.4768C180.015 47.5206 184.271 43.5341 189.55 40.5173C194.829 37.3927 200.648 35.8304 207.004 35.8304Z" fill="white"/>
<path d="M31.6765 38.7396V57.3253H68.0397L59.7784 81.4058H31.6765V101.931H72.8882V127.304H0V13.3661H72.8882V38.7396H31.6765Z" fill="white"/>
</svg>
