<svg width="1279" height="656" viewBox="0 0 1279 656" fill="none" xmlns="http://www.w3.org/2000/svg">
<g clip-path="url(#clip0_3114_9671)">
<g filter="url(#filter0_i_3114_9671)">
<path d="M405.375 327.5C405.375 379.898 362.898 422.375 310.5 422.375C258.102 422.375 215.625 379.898 215.625 327.5C215.625 275.102 258.102 232.625 310.5 232.625C362.898 232.625 405.375 275.102 405.375 327.5Z" stroke="#F5674F" stroke-width="41.25"/>
</g>
<g filter="url(#filter1_f_3114_9671)">
<path d="M406.061 325.669C406.061 379.285 363.403 422.607 310.957 422.607C258.511 422.607 215.853 379.285 215.853 325.669C215.853 272.053 258.511 228.732 310.957 228.732C363.403 228.732 406.061 272.053 406.061 325.669Z" stroke="#FB9584" stroke-width="9.16667"/>
</g>
<mask id="mask0_3114_9671" style="mask-type:alpha" maskUnits="userSpaceOnUse" x="195" y="212" width="231" height="231">
<path d="M405.327 327.478C405.327 379.885 362.895 422.331 310.6 422.331C258.305 422.331 215.873 379.885 215.873 327.478C215.873 275.071 258.305 232.625 310.6 232.625C362.895 232.625 405.327 275.071 405.327 327.478Z" stroke="#F5674F" stroke-width="41.25"/>
</mask>
<g mask="url(#mask0_3114_9671)">
<rect opacity="0.6" x="180.922" y="287.645" width="252.317" height="66.849" fill="white"/>
<path opacity="0.6" d="M346.791 450.996V197.925H269.89V450.996H346.791Z" fill="white"/>
</g>
<path d="M309.701 335.925L317.486 349.091H332.067L317.486 326.097L332.412 304.66H317.831L309.701 317.725L303.676 326.097L309.701 335.925Z" fill="#3DA229"/>
<path d="M311.201 335.926L304.784 344.592H290.534L303.417 326.098L290.494 308.938H305.075L311.201 317.726L317.227 326.098L311.201 335.926Z" fill="white"/>
<path d="M305.479 321.484V331.885H283.789V321.484H305.479Z" fill="white"/>
<path fill-rule="evenodd" clip-rule="evenodd" d="M279.149 133.732C279.562 134.025 279.66 134.598 279.367 135.012L274.593 141.753C274.3 142.166 273.727 142.264 273.314 141.971C272.9 141.678 272.802 141.105 273.095 140.692L276.578 135.774C206.368 148.611 149.507 199.673 128.358 266.601C128.205 267.084 127.69 267.352 127.206 267.2C126.723 267.047 126.455 266.531 126.608 266.048C147.963 198.465 205.386 146.906 276.294 133.96L271.347 130.456C270.933 130.163 270.835 129.59 271.128 129.176C271.421 128.763 271.994 128.665 272.408 128.958L279.149 133.732ZM353.203 136.286C353.315 135.792 353.807 135.482 354.301 135.594C424.913 151.603 480.874 206.191 498.857 276.032L501.999 270.847C502.262 270.414 502.826 270.275 503.26 270.538C503.693 270.801 503.832 271.365 503.569 271.799L499.288 278.863C499.025 279.297 498.461 279.435 498.027 279.172L490.963 274.891C490.529 274.628 490.391 274.064 490.654 273.631C490.916 273.197 491.481 273.059 491.914 273.321L497.068 276.445C479.243 207.29 423.819 153.237 353.895 137.384C353.401 137.272 353.091 136.781 353.203 136.286ZM499.696 365.379C500.191 365.488 500.503 365.978 500.394 366.473C488.346 420.945 453.363 466.795 406.096 493.378L411.915 495.079C412.401 495.222 412.68 495.732 412.538 496.218C412.396 496.705 411.886 496.984 411.4 496.841L403.471 494.523C402.985 494.381 402.706 493.871 402.848 493.384L405.166 485.456C405.308 484.97 405.818 484.69 406.305 484.833C406.791 484.975 407.07 485.485 406.928 485.971L405.237 491.755C452.038 465.419 486.672 420.012 498.601 366.077C498.711 365.582 499.201 365.269 499.696 365.379ZM125.816 379.377C126.057 378.931 126.614 378.765 127.06 379.005L134.33 382.926C134.777 383.167 134.943 383.724 134.703 384.17C134.462 384.616 133.905 384.783 133.459 384.542L128.155 381.682C144.24 433.223 181.485 475.429 229.723 498.128C230.182 498.344 230.378 498.891 230.163 499.35C229.947 499.808 229.4 500.005 228.941 499.789C180.23 476.867 142.621 434.242 126.389 382.183L123.511 387.519C123.27 387.965 122.714 388.132 122.267 387.891C121.821 387.651 121.655 387.094 121.895 386.648L125.816 379.377Z" fill="#071607"/>
<path d="M279.148 133.732C279.562 134.025 279.66 134.598 279.367 135.012L274.593 141.753C274.3 142.166 273.727 142.264 273.313 141.971C272.9 141.678 272.802 141.105 273.095 140.692L276.578 135.774C206.368 148.611 149.506 199.673 128.358 266.601C128.205 267.084 127.689 267.352 127.206 267.2C126.723 267.047 126.455 266.531 126.607 266.048C147.963 198.465 205.386 146.906 276.294 133.96L271.346 130.456C270.933 130.163 270.835 129.59 271.128 129.176C271.421 128.763 271.994 128.665 272.407 128.958L279.148 133.732Z" fill="#071607"/>
<path d="M122.324 273.187L122.28 274.621C122.091 274.642 121.903 274.699 121.717 274.791C121.531 274.88 121.365 275.019 121.219 275.209C121.073 275.399 120.967 275.652 120.901 275.968C120.81 276.4 120.832 276.781 120.965 277.111C121.095 277.44 121.312 277.637 121.615 277.7C121.877 277.755 122.108 277.702 122.308 277.541C122.509 277.381 122.705 277.095 122.898 276.684L123.444 275.499C123.762 274.812 124.131 274.328 124.552 274.047C124.974 273.766 125.462 273.683 126.016 273.799C126.486 273.897 126.876 274.121 127.186 274.47C127.494 274.815 127.702 275.251 127.808 275.778C127.915 276.301 127.903 276.879 127.77 277.512C127.587 278.39 127.25 279.067 126.759 279.543C126.265 280.019 125.658 280.247 124.938 280.228L125.022 278.706C125.426 278.694 125.756 278.566 126.013 278.322C126.267 278.076 126.442 277.724 126.538 277.265C126.643 276.764 126.622 276.343 126.477 276C126.329 275.656 126.104 275.453 125.801 275.39C125.556 275.338 125.331 275.387 125.125 275.536C124.921 275.682 124.737 275.933 124.574 276.289L124.005 277.555C123.685 278.252 123.307 278.738 122.869 279.012C122.432 279.283 121.935 279.36 121.377 279.243C120.914 279.146 120.536 278.932 120.243 278.601C119.95 278.27 119.755 277.856 119.656 277.36C119.554 276.862 119.565 276.319 119.688 275.731C119.865 274.883 120.188 274.255 120.658 273.845C121.123 273.434 121.679 273.215 122.324 273.187Z" fill="white"/>
<path d="M120.617 281.07L120.611 282.505C120.422 282.531 120.236 282.592 120.053 282.69C119.869 282.784 119.707 282.927 119.566 283.121C119.425 283.314 119.325 283.57 119.268 283.888C119.189 284.323 119.22 284.703 119.362 285.029C119.501 285.355 119.723 285.545 120.027 285.6C120.29 285.648 120.52 285.589 120.716 285.424C120.913 285.258 121.102 284.967 121.283 284.551L121.798 283.352C122.097 282.657 122.454 282.163 122.867 281.871C123.281 281.579 123.766 281.483 124.324 281.584C124.796 281.67 125.192 281.884 125.512 282.224C125.829 282.561 126.047 282.991 126.168 283.515C126.289 284.035 126.291 284.613 126.176 285.25C126.015 286.132 125.696 286.818 125.219 287.307C124.738 287.796 124.137 288.04 123.416 288.04L123.46 286.516C123.863 286.494 124.19 286.357 124.441 286.106C124.688 285.854 124.853 285.497 124.937 285.035C125.029 284.532 124.997 284.111 124.843 283.773C124.686 283.433 124.455 283.236 124.151 283.18C123.904 283.135 123.681 283.19 123.479 283.344C123.279 283.495 123.102 283.751 122.948 284.112L122.413 285.393C122.112 286.098 121.746 286.593 121.316 286.879C120.886 287.161 120.391 287.251 119.83 287.149C119.365 287.065 118.982 286.861 118.68 286.537C118.378 286.214 118.172 285.806 118.06 285.312C117.945 284.817 117.941 284.274 118.049 283.682C118.204 282.831 118.51 282.194 118.968 281.772C119.423 281.349 119.973 281.115 120.617 281.07Z" fill="white"/>
<path d="M124.553 293.435C124.436 294.215 124.168 294.862 123.749 295.375C123.328 295.885 122.79 296.247 122.135 296.461C121.478 296.671 120.738 296.714 119.916 296.591C119.105 296.468 118.413 296.209 117.84 295.813C117.267 295.414 116.848 294.915 116.583 294.316C116.319 293.714 116.242 293.045 116.353 292.309C116.421 291.862 116.56 291.44 116.771 291.043C116.982 290.646 117.271 290.304 117.637 290.019C118.004 289.733 118.454 289.532 118.989 289.415C119.52 289.299 120.144 289.294 120.863 289.403L121.41 289.485L120.46 295.781L119.305 295.607L120.027 290.822C119.621 290.761 119.249 290.789 118.912 290.907C118.57 291.024 118.286 291.219 118.059 291.49C117.832 291.758 117.689 292.092 117.629 292.491C117.563 292.924 117.613 293.318 117.777 293.673C117.939 294.025 118.176 294.314 118.49 294.54C118.801 294.763 119.155 294.904 119.55 294.964L120.452 295.1C120.982 295.18 121.446 295.155 121.845 295.025C122.245 294.892 122.568 294.672 122.815 294.364C123.058 294.056 123.214 293.677 123.282 293.227C123.326 292.935 123.325 292.662 123.279 292.409C123.229 292.155 123.133 291.928 122.991 291.728C122.849 291.527 122.661 291.361 122.428 291.231L122.911 289.812C123.323 289.993 123.668 290.26 123.945 290.611C124.22 290.958 124.412 291.372 124.523 291.853C124.63 292.33 124.64 292.857 124.553 293.435Z" fill="white"/>
<path d="M117.924 303.732L122.664 304.125L122.535 305.679L114.552 305.017L114.676 303.525L115.975 303.633L115.983 303.534C115.576 303.315 115.26 303 115.036 302.587C114.813 302.171 114.726 301.663 114.775 301.064C114.82 300.52 114.974 300.053 115.237 299.663C115.496 299.273 115.858 298.983 116.324 298.795C116.789 298.607 117.351 298.54 118.01 298.595L123.087 299.016L122.958 300.57L118.068 300.164C117.489 300.116 117.025 300.23 116.674 300.504C116.32 300.778 116.121 301.179 116.077 301.705C116.047 302.066 116.099 302.393 116.231 302.686C116.364 302.976 116.575 303.215 116.863 303.403C117.148 303.587 117.501 303.697 117.924 303.732Z" fill="white"/>
<path d="M122.746 311.69C122.714 312.336 122.521 312.905 122.166 313.395C121.808 313.883 121.315 314.255 120.686 314.513C120.054 314.768 119.306 314.874 118.441 314.831C117.576 314.789 116.844 314.609 116.243 314.29C115.643 313.968 115.192 313.546 114.891 313.023C114.589 312.5 114.454 311.917 114.485 311.275C114.51 310.778 114.613 310.383 114.794 310.089C114.972 309.792 115.175 309.565 115.402 309.409C115.629 309.249 115.828 309.127 115.999 309.041L116.004 308.948L112.04 308.753L112.117 307.196L122.784 307.719L122.709 309.24L121.464 309.179L121.458 309.309C121.624 309.411 121.811 309.556 122.022 309.744C122.232 309.928 122.411 310.177 122.559 310.491C122.707 310.804 122.77 311.204 122.746 311.69ZM121.434 311.281C121.456 310.834 121.357 310.449 121.136 310.129C120.912 309.804 120.592 309.552 120.176 309.371C119.76 309.187 119.271 309.082 118.709 309.054C118.153 309.027 117.663 309.083 117.238 309.222C116.814 309.362 116.478 309.58 116.23 309.878C115.982 310.175 115.847 310.552 115.825 311.006C115.802 311.475 115.904 311.872 116.132 312.196C116.36 312.521 116.68 312.773 117.092 312.953C117.505 313.13 117.975 313.232 118.503 313.258C119.037 313.284 119.522 313.227 119.957 313.089C120.392 312.95 120.742 312.73 121.007 312.43C121.269 312.126 121.412 311.743 121.434 311.281Z" fill="white"/>
<path d="M122.186 320.215C122.189 321.004 122.022 321.684 121.686 322.255C121.347 322.823 120.87 323.262 120.256 323.573C119.638 323.881 118.913 324.036 118.082 324.038C117.262 324.04 116.538 323.889 115.912 323.585C115.285 323.277 114.795 322.848 114.443 322.296C114.09 321.74 113.913 321.091 113.911 320.347C113.909 319.895 113.983 319.457 114.131 319.032C114.28 318.607 114.513 318.226 114.832 317.888C115.151 317.55 115.566 317.283 116.076 317.087C116.583 316.891 117.2 316.792 117.927 316.79L118.48 316.788L118.497 323.155L117.329 323.159L117.316 318.319C116.905 318.32 116.542 318.405 116.226 318.573C115.907 318.74 115.656 318.976 115.472 319.279C115.289 319.578 115.198 319.93 115.199 320.333C115.2 320.771 115.309 321.153 115.525 321.479C115.738 321.802 116.017 322.052 116.362 322.228C116.703 322.401 117.073 322.487 117.473 322.486L118.386 322.483C118.921 322.482 119.376 322.386 119.751 322.198C120.126 322.005 120.412 321.739 120.609 321.397C120.803 321.056 120.899 320.658 120.898 320.202C120.897 319.907 120.855 319.638 120.771 319.395C120.683 319.151 120.554 318.941 120.383 318.765C120.212 318.588 120.002 318.453 119.751 318.36L120.013 316.883C120.448 317 120.829 317.211 121.157 317.516C121.481 317.818 121.734 318.198 121.916 318.656C122.095 319.111 122.185 319.631 122.186 320.215Z" fill="white"/>
<path d="M122.451 329.058L114.464 329.663L114.35 328.16L115.619 328.064L115.613 327.98C115.172 327.867 114.814 327.636 114.54 327.288C114.263 326.936 114.106 326.526 114.071 326.058C114.063 325.961 114.058 325.846 114.055 325.714C114.052 325.578 114.052 325.472 114.057 325.394L115.544 325.282C115.532 325.346 115.521 325.458 115.512 325.619C115.5 325.78 115.5 325.941 115.512 326.1C115.54 326.468 115.643 326.789 115.82 327.065C115.995 327.338 116.225 327.547 116.511 327.693C116.794 327.839 117.109 327.899 117.456 327.872L122.333 327.503L122.451 329.058Z" fill="white"/>
<path d="M122.731 335.649C122.76 336.156 122.694 336.619 122.53 337.04C122.363 337.461 122.106 337.801 121.759 338.062C121.412 338.319 120.977 338.463 120.453 338.494C120.002 338.52 119.625 338.455 119.323 338.299C119.022 338.142 118.777 337.921 118.59 337.636C118.402 337.351 118.255 337.029 118.147 336.67C118.038 336.31 117.951 335.943 117.884 335.567C117.8 335.092 117.732 334.706 117.68 334.409C117.624 334.113 117.551 333.899 117.46 333.769C117.368 333.639 117.229 333.579 117.042 333.59L117.005 333.592C116.55 333.619 116.206 333.768 115.971 334.039C115.736 334.307 115.633 334.693 115.663 335.196C115.693 335.72 115.834 336.126 116.084 336.414C116.33 336.7 116.598 336.891 116.885 336.989L116.638 338.472C116.142 338.327 115.735 338.096 115.417 337.78C115.095 337.461 114.854 337.087 114.693 336.658C114.529 336.229 114.432 335.773 114.404 335.291C114.385 334.971 114.404 334.631 114.459 334.269C114.511 333.903 114.626 333.559 114.806 333.235C114.985 332.907 115.253 332.632 115.609 332.41C115.962 332.187 116.429 332.058 117.013 332.024L122.323 331.713L122.412 333.233L121.318 333.297L121.322 333.36C121.529 333.449 121.736 333.588 121.942 333.778C122.148 333.968 122.325 334.217 122.472 334.525C122.619 334.834 122.705 335.208 122.731 335.649ZM121.462 335.384C121.436 334.953 121.33 334.591 121.142 334.295C120.954 333.996 120.718 333.775 120.434 333.631C120.147 333.484 119.846 333.42 119.53 333.439L118.499 333.499C118.558 333.551 118.616 333.656 118.674 333.813C118.728 333.966 118.779 334.143 118.825 334.342C118.868 334.541 118.909 334.736 118.948 334.925C118.984 335.115 119.014 335.273 119.039 335.4C119.095 335.7 119.175 335.972 119.28 336.217C119.384 336.458 119.526 336.648 119.705 336.787C119.88 336.923 120.107 336.983 120.384 336.967C120.769 336.944 121.053 336.785 121.234 336.489C121.411 336.193 121.487 335.825 121.462 335.384Z" fill="white"/>
<path d="M126.406 346.838L115.478 348.213L115.288 346.702L116.577 346.54L116.56 346.41C116.384 346.342 116.176 346.236 115.937 346.095C115.699 345.953 115.48 345.742 115.28 345.462C115.076 345.183 114.944 344.797 114.882 344.304C114.801 343.662 114.891 343.069 115.152 342.525C115.413 341.98 115.831 341.527 116.405 341.163C116.979 340.797 117.696 340.56 118.555 340.452C119.414 340.344 120.168 340.394 120.818 340.603C121.465 340.813 121.985 341.147 122.379 341.605C122.77 342.064 123.005 342.615 123.086 343.256C123.147 343.739 123.115 344.144 122.992 344.472C122.868 344.796 122.708 345.057 122.512 345.257C122.317 345.457 122.14 345.614 121.983 345.728L121.995 345.822L126.212 345.291L126.406 346.838ZM119.261 346.197C119.82 346.127 120.3 345.984 120.7 345.769C121.101 345.554 121.401 345.278 121.6 344.941C121.796 344.604 121.866 344.214 121.81 343.769C121.752 343.307 121.581 342.936 121.297 342.656C121.01 342.377 120.644 342.184 120.2 342.079C119.755 341.97 119.267 341.949 118.736 342.016C118.211 342.082 117.751 342.221 117.353 342.432C116.955 342.64 116.655 342.916 116.453 343.26C116.251 343.601 116.179 344.004 116.238 344.47C116.294 344.918 116.457 345.283 116.727 345.564C116.997 345.842 117.349 346.034 117.783 346.141C118.217 346.248 118.71 346.266 119.261 346.197Z" fill="white"/>
<path d="M125.401 352.454C125.522 353.234 125.459 353.931 125.213 354.547C124.964 355.159 124.558 355.665 123.998 356.065C123.433 356.462 122.74 356.724 121.919 356.851C121.108 356.977 120.37 356.937 119.705 356.73C119.039 356.52 118.49 356.169 118.059 355.676C117.626 355.181 117.353 354.565 117.239 353.83C117.17 353.383 117.177 352.939 117.26 352.497C117.342 352.055 117.516 351.643 117.781 351.26C118.045 350.878 118.415 350.552 118.89 350.281C119.362 350.011 119.957 349.82 120.675 349.709L121.221 349.624L122.196 355.917L121.042 356.095L120.301 351.313C119.895 351.376 119.549 351.514 119.262 351.727C118.971 351.941 118.758 352.212 118.622 352.539C118.486 352.863 118.449 353.224 118.511 353.622C118.578 354.055 118.743 354.416 119.006 354.706C119.265 354.993 119.578 355.198 119.945 355.321C120.309 355.44 120.688 355.47 121.083 355.408L121.985 355.269C122.514 355.187 122.95 355.024 123.292 354.781C123.634 354.535 123.876 354.228 124.02 353.861C124.16 353.494 124.196 353.086 124.126 352.636C124.081 352.344 123.998 352.084 123.878 351.856C123.755 351.629 123.596 351.441 123.4 351.292C123.205 351.143 122.976 351.041 122.714 350.986L122.751 349.487C123.199 349.538 123.607 349.689 123.977 349.941C124.343 350.191 124.65 350.528 124.899 350.954C125.144 351.377 125.312 351.877 125.401 352.454Z" fill="white"/>
<path d="M127.297 361.382L119.464 363.053L119.149 361.579L120.394 361.314L120.376 361.232C119.924 361.179 119.539 360.998 119.221 360.69C118.898 360.378 118.688 359.993 118.59 359.534C118.57 359.438 118.549 359.326 118.528 359.195C118.507 359.061 118.493 358.955 118.488 358.878L119.946 358.567C119.942 358.632 119.947 358.745 119.96 358.906C119.969 359.067 119.991 359.226 120.024 359.382C120.101 359.743 120.246 360.048 120.459 360.297C120.668 360.544 120.925 360.721 121.228 360.827C121.528 360.933 121.848 360.95 122.188 360.878L126.972 359.857L127.297 361.382Z" fill="white"/>
<path d="M131.893 370.001L121.54 372.622L120.606 368.932C120.402 368.126 120.38 367.422 120.539 366.818C120.698 366.215 120.999 365.717 121.441 365.326C121.88 364.935 122.417 364.659 123.05 364.499C123.687 364.338 124.294 364.326 124.87 364.463C125.442 364.598 125.944 364.894 126.375 365.352C126.803 365.807 127.118 366.435 127.321 367.237L127.963 369.775L126.639 370.11L126.032 367.714C125.903 367.205 125.711 366.815 125.456 366.542C125.197 366.271 124.895 366.099 124.551 366.029C124.207 365.958 123.839 365.972 123.448 366.071C123.057 366.17 122.729 366.332 122.463 366.557C122.197 366.782 122.019 367.077 121.928 367.44C121.836 367.801 121.856 368.24 121.988 368.759L122.484 370.721L131.498 368.439L131.893 370.001Z" fill="white"/>
<path d="M389.261 500.426L391.531 504.606L390.16 505.35L386.338 498.311L387.653 497.596L388.275 498.742L388.363 498.695C388.322 498.234 388.413 497.797 388.636 497.384C388.861 496.968 389.238 496.617 389.767 496.33C390.246 496.07 390.721 495.942 391.191 495.948C391.66 495.951 392.1 496.096 392.513 496.382C392.925 496.668 393.289 497.102 393.604 497.682L396.036 502.16L394.665 502.904L392.324 498.591C392.047 498.081 391.697 497.755 391.275 497.612C390.852 497.466 390.408 497.519 389.944 497.771C389.626 497.944 389.381 498.166 389.208 498.438C389.038 498.708 388.954 499.015 388.954 499.359C388.956 499.698 389.059 500.054 389.261 500.426Z" fill="white"/>
<path d="M384.965 507.681C384.274 507.976 383.604 508.075 382.954 507.979C382.304 507.883 381.715 507.611 381.187 507.163C380.659 506.716 380.233 506.112 379.907 505.351C379.581 504.587 379.437 503.858 379.477 503.164C379.517 502.471 379.726 501.855 380.106 501.319C380.485 500.782 381.02 500.366 381.71 500.071C382.401 499.776 383.071 499.676 383.721 499.773C384.371 499.869 384.961 500.143 385.49 500.593C386.019 501.044 386.447 501.651 386.774 502.415C387.099 503.176 387.241 503.901 387.2 504.592C387.159 505.283 386.948 505.896 386.569 506.433C386.19 506.969 385.655 507.385 384.965 507.681ZM384.455 506.475C384.902 506.284 385.222 506.007 385.415 505.644C385.608 505.282 385.691 504.874 385.663 504.421C385.639 503.966 385.526 503.502 385.324 503.029C385.123 502.559 384.866 502.159 384.554 501.827C384.244 501.491 383.891 501.266 383.494 501.152C383.097 501.038 382.675 501.076 382.228 501.268C381.777 501.461 381.454 501.74 381.26 502.107C381.068 502.473 380.985 502.884 381.011 503.342C381.038 503.796 381.152 504.257 381.353 504.727C381.556 505.2 381.811 505.603 382.12 505.936C382.432 506.268 382.786 506.489 383.181 506.6C383.579 506.709 384.004 506.668 384.455 506.475Z" fill="white"/>
<path d="M378.126 510.124L375.025 502.738L376.463 502.135L379.564 509.52L378.126 510.124ZM375.273 501.294C375.023 501.399 374.773 501.406 374.524 501.314C374.276 501.218 374.103 501.054 374.005 500.82C373.905 500.582 373.909 500.343 374.015 500.103C374.123 499.857 374.302 499.682 374.552 499.577C374.802 499.472 375.051 499.468 375.299 499.564C375.548 499.655 375.723 499.819 375.822 500.056C375.921 500.29 375.916 500.53 375.808 500.775C375.701 501.016 375.523 501.189 375.273 501.294Z" fill="white"/>
<path d="M372.658 503.948L373.109 505.115L369.028 506.692L368.577 505.525L372.658 503.948ZM368.979 503.312L370.434 502.75L373.165 509.817C373.274 510.1 373.398 510.296 373.538 510.406C373.676 510.513 373.822 510.566 373.975 510.567C374.13 510.563 374.287 510.53 374.445 510.469C374.562 510.424 374.661 510.376 374.743 510.326C374.824 510.276 374.887 510.237 374.932 510.208L375.659 511.308C375.587 511.373 375.48 511.452 375.336 511.545C375.195 511.64 375.007 511.735 374.775 511.828C374.395 511.983 374.012 512.053 373.626 512.038C373.24 512.023 372.887 511.906 372.568 511.686C372.248 511.467 372.001 511.132 371.827 510.681L368.979 503.312Z" fill="white"/>
<path d="M362.908 509.871L364.418 514.381L362.939 514.876L360.396 507.281L361.815 506.806L362.229 508.042L362.323 508.01C362.363 507.55 362.528 507.135 362.819 506.766C363.113 506.397 363.546 506.116 364.116 505.925C364.634 505.752 365.123 505.709 365.585 505.796C366.046 505.88 366.455 506.099 366.811 506.453C367.168 506.806 367.451 507.296 367.661 507.922L369.279 512.754L367.8 513.249L366.242 508.596C366.058 508.045 365.77 507.663 365.38 507.449C364.988 507.232 364.541 507.207 364.04 507.375C363.698 507.49 363.417 507.666 363.2 507.904C362.986 508.14 362.85 508.428 362.791 508.767C362.734 509.101 362.773 509.469 362.908 509.871Z" fill="white"/>
<path d="M357.402 516.536C356.64 516.743 355.94 516.758 355.301 516.583C354.665 516.403 354.117 516.056 353.657 515.544C353.199 515.027 352.862 514.367 352.644 513.565C352.428 512.774 352.386 512.036 352.517 511.352C352.652 510.667 352.94 510.082 353.381 509.598C353.826 509.114 354.407 508.774 355.125 508.578C355.561 508.46 356.003 508.417 356.452 508.45C356.9 508.483 357.329 508.61 357.739 508.83C358.148 509.05 358.514 509.381 358.836 509.823C359.157 510.262 359.412 510.832 359.603 511.533L359.748 512.066L353.604 513.737L353.297 512.61L357.967 511.34C357.859 510.944 357.684 510.615 357.44 510.354C357.195 510.089 356.902 509.907 356.562 509.809C356.225 509.71 355.862 509.713 355.473 509.819C355.05 509.934 354.709 510.138 354.451 510.432C354.194 510.721 354.026 511.055 353.945 511.434C353.866 511.808 353.88 512.188 353.985 512.574L354.224 513.455C354.364 513.971 354.575 514.386 354.854 514.699C355.137 515.011 355.469 515.218 355.85 515.32C356.23 515.419 356.639 515.408 357.079 515.289C357.364 515.211 357.613 515.1 357.826 514.956C358.038 514.808 358.207 514.629 358.334 514.418C358.46 514.207 358.536 513.969 358.561 513.702L360.055 513.572C360.054 514.022 359.95 514.445 359.74 514.841C359.533 515.232 359.232 515.575 358.837 515.87C358.444 516.161 357.965 516.383 357.402 516.536Z" fill="white"/>
<path d="M350.292 510.341L349.113 518.779L347.481 519.126L342.972 511.894L344.609 511.546L347.873 517.155L347.955 517.138L348.655 510.688L350.292 510.341Z" fill="white"/>
<path d="M339.262 520.627C338.476 520.694 337.784 520.584 337.187 520.296C336.594 520.005 336.117 519.566 335.756 518.979C335.399 518.388 335.185 517.679 335.115 516.851C335.045 516.033 335.136 515.3 335.388 514.65C335.643 514.001 336.031 513.477 336.552 513.081C337.076 512.683 337.709 512.453 338.451 512.39C338.901 512.352 339.344 512.389 339.779 512.502C340.214 512.615 340.614 512.817 340.977 513.107C341.34 513.397 341.64 513.788 341.878 514.281C342.115 514.77 342.264 515.377 342.326 516.101L342.373 516.652L336.028 517.192L335.929 516.028L340.751 515.617C340.716 515.208 340.602 514.854 340.409 514.553C340.216 514.248 339.96 514.017 339.643 513.859C339.33 513.701 338.972 513.639 338.57 513.673C338.134 513.71 337.762 513.85 337.455 514.092C337.151 514.331 336.925 514.629 336.777 514.987C336.633 515.342 336.578 515.718 336.612 516.116L336.689 517.026C336.735 517.559 336.867 518.005 337.086 518.363C337.308 518.721 337.597 518.984 337.954 519.153C338.31 519.318 338.715 519.381 339.168 519.342C339.463 519.317 339.728 519.253 339.963 519.149C340.198 519.042 340.397 518.896 340.559 518.711C340.721 518.526 340.839 518.305 340.911 518.048L342.404 518.188C342.323 518.631 342.144 519.028 341.867 519.38C341.593 519.727 341.235 520.011 340.793 520.23C340.354 520.445 339.844 520.578 339.262 520.627Z" fill="white"/>
<path d="M329.269 521.672L329.109 513.663L330.616 513.633L330.641 514.905L330.725 514.903C330.862 514.47 331.113 514.125 331.476 513.871C331.843 513.614 332.261 513.48 332.73 513.471C332.828 513.469 332.942 513.47 333.075 513.474C333.21 513.478 333.317 513.485 333.393 513.494L333.423 514.985C333.36 514.969 333.249 514.952 333.088 514.934C332.928 514.913 332.768 514.904 332.608 514.908C332.239 514.915 331.913 515 331.627 515.162C331.345 515.32 331.124 515.539 330.962 515.817C330.801 516.091 330.723 516.402 330.73 516.75L330.828 521.64L329.269 521.672Z" fill="white"/>
<path d="M319.476 523.794L319.354 513.115L323.161 513.071C323.991 513.062 324.681 513.205 325.231 513.501C325.78 513.797 326.193 514.206 326.47 514.728C326.748 515.246 326.89 515.832 326.897 516.486C326.905 517.143 326.774 517.736 326.506 518.264C326.241 518.788 325.835 519.207 325.289 519.519C324.747 519.828 324.062 519.987 323.235 519.996L320.617 520.026L320.601 518.66L323.073 518.632C323.598 518.626 324.023 518.53 324.348 518.346C324.672 518.158 324.909 517.905 325.059 517.587C325.208 517.268 325.28 516.908 325.276 516.505C325.271 516.101 325.19 515.744 325.034 515.433C324.877 515.122 324.633 514.88 324.301 514.706C323.972 514.532 323.54 514.449 323.004 514.455L320.981 514.478L321.088 523.776L319.476 523.794Z" fill="white"/>
<path d="M317.113 511.594L313.755 524.403L312.363 524.413L315.72 511.603L317.113 511.594Z" fill="white"/>
<path d="M305.823 517.283L305.63 522.035L304.072 521.972L304.397 513.969L305.892 514.029L305.839 515.332L305.938 515.336C306.14 514.92 306.442 514.591 306.845 514.35C307.251 514.109 307.755 514.001 308.356 514.025C308.901 514.047 309.374 514.181 309.775 514.427C310.175 514.669 310.48 515.019 310.687 515.476C310.895 515.934 310.985 516.492 310.959 517.152L310.752 522.243L309.194 522.18L309.393 517.277C309.417 516.697 309.284 516.237 308.995 515.898C308.706 515.556 308.298 515.374 307.77 515.353C307.408 515.338 307.084 515.403 306.796 515.548C306.512 515.693 306.282 515.914 306.106 516.209C305.935 516.502 305.84 516.86 305.823 517.283Z" fill="white"/>
<path d="M297.576 522.01C296.828 521.936 296.193 521.7 295.67 521.302C295.147 520.904 294.762 520.382 294.516 519.735C294.269 519.089 294.186 518.354 294.268 517.531C294.35 516.704 294.576 515.996 294.945 515.408C295.315 514.819 295.795 514.381 296.386 514.094C296.977 513.806 297.646 513.7 298.393 513.774C299.141 513.848 299.776 514.084 300.299 514.482C300.822 514.88 301.206 515.404 301.453 516.054C301.699 516.703 301.781 517.442 301.699 518.269C301.618 519.092 301.392 519.796 301.023 520.382C300.654 520.967 300.174 521.403 299.583 521.69C298.992 521.977 298.323 522.084 297.576 522.01ZM297.71 520.708C298.195 520.756 298.609 520.668 298.952 520.443C299.296 520.219 299.565 519.901 299.76 519.491C299.957 519.081 300.082 518.62 300.133 518.108C300.183 517.599 300.152 517.125 300.038 516.684C299.929 516.239 299.728 515.872 299.435 515.581C299.143 515.29 298.754 515.12 298.27 515.072C297.782 515.024 297.364 515.113 297.017 515.341C296.673 515.569 296.402 515.889 296.203 516.303C296.009 516.713 295.886 517.173 295.836 517.681C295.785 518.193 295.815 518.67 295.925 519.11C296.038 519.551 296.241 519.916 296.534 520.203C296.83 520.491 297.222 520.659 297.71 520.708Z" fill="white"/>
<path d="M290.017 521.466L291.139 513.535L292.683 513.753L291.561 521.684L290.017 521.466ZM292.091 512.421C291.823 512.383 291.605 512.261 291.438 512.055C291.274 511.846 291.21 511.615 291.246 511.364C291.282 511.109 291.407 510.906 291.622 510.754C291.84 510.598 292.084 510.54 292.352 510.578C292.621 510.616 292.837 510.739 293 510.949C293.168 511.155 293.233 511.385 293.197 511.64C293.162 511.891 293.035 512.095 292.816 512.25C292.602 512.402 292.36 512.459 292.091 512.421Z" fill="white"/>
<path d="M289.083 513.346L288.843 514.575L284.549 513.737L284.789 512.509L289.083 513.346ZM286.308 510.85L287.838 511.148L286.387 518.585C286.329 518.882 286.33 519.114 286.39 519.282C286.45 519.446 286.544 519.569 286.674 519.651C286.807 519.73 286.957 519.786 287.124 519.818C287.247 519.842 287.356 519.855 287.452 519.856C287.547 519.857 287.622 519.857 287.675 519.857L287.705 521.175C287.609 521.192 287.476 521.201 287.306 521.203C287.135 521.209 286.926 521.19 286.68 521.145C286.276 521.073 285.914 520.928 285.596 520.71C285.277 520.492 285.041 520.205 284.887 519.849C284.733 519.494 284.703 519.079 284.795 518.604L286.308 510.85Z" fill="white"/>
<path d="M277.463 519.161C276.967 519.054 276.538 518.865 276.177 518.595C275.816 518.321 275.557 517.982 275.399 517.578C275.245 517.174 275.223 516.716 275.334 516.203C275.43 515.761 275.593 515.416 275.825 515.168C276.057 514.919 276.335 514.743 276.66 514.639C276.985 514.535 277.335 514.479 277.71 514.471C278.085 514.464 278.463 514.478 278.843 514.514C279.323 514.561 279.713 514.599 280.013 514.628C280.313 514.654 280.539 514.641 280.689 514.588C280.839 514.535 280.934 514.417 280.974 514.233L280.981 514.198C281.078 513.753 281.027 513.38 280.828 513.081C280.633 512.783 280.289 512.581 279.796 512.474C279.283 512.363 278.854 512.389 278.51 512.553C278.169 512.714 277.913 512.92 277.741 513.171L276.379 512.534C276.652 512.095 276.983 511.765 277.373 511.544C277.766 511.319 278.192 511.187 278.648 511.147C279.106 511.104 279.571 511.134 280.043 511.236C280.356 511.304 280.679 511.413 281.013 511.563C281.351 511.711 281.652 511.915 281.915 512.175C282.183 512.436 282.376 512.767 282.495 513.17C282.615 513.57 282.613 514.055 282.489 514.626L281.364 519.824L279.876 519.502L280.107 518.432L280.046 518.419C279.905 518.594 279.715 518.756 279.477 518.904C279.239 519.051 278.951 519.154 278.615 519.213C278.278 519.272 277.894 519.255 277.463 519.161ZM278.059 518.01C278.48 518.101 278.859 518.096 279.194 517.994C279.532 517.893 279.809 517.725 280.023 517.49C280.242 517.253 280.384 516.98 280.451 516.671L280.67 515.662C280.604 515.704 280.487 515.732 280.321 515.746C280.158 515.757 279.975 515.758 279.77 515.75C279.567 515.738 279.368 515.725 279.176 515.712C278.984 515.695 278.823 515.681 278.693 515.671C278.39 515.645 278.106 515.649 277.842 515.684C277.582 515.72 277.361 515.806 277.178 515.941C277 516.073 276.882 516.275 276.823 516.547C276.741 516.924 276.819 517.24 277.056 517.494C277.293 517.744 277.628 517.916 278.059 518.01Z" fill="white"/>
<path d="M267.967 519.814C267.354 519.643 266.849 519.416 266.451 519.133C266.057 518.85 265.758 518.538 265.553 518.196C265.349 517.854 265.221 517.507 265.171 517.154L266.611 516.98C266.66 517.152 266.738 517.342 266.843 517.548C266.95 517.758 267.119 517.958 267.347 518.148C267.579 518.338 267.903 518.491 268.319 518.607C268.888 518.765 269.397 518.756 269.846 518.582C270.294 518.41 270.602 518.023 270.77 517.42L271.191 515.902L271.095 515.876C270.959 516.015 270.778 516.161 270.551 516.315C270.328 516.469 270.049 516.579 269.713 516.645C269.377 516.711 268.973 516.678 268.501 516.547C267.891 516.377 267.381 516.082 266.971 515.662C266.565 515.239 266.298 514.708 266.168 514.07C266.043 513.429 266.095 512.698 266.322 511.877C266.55 511.057 266.885 510.392 267.325 509.883C267.77 509.375 268.279 509.033 268.855 508.857C269.432 508.678 270.03 508.674 270.649 508.846C271.128 508.979 271.493 509.167 271.743 509.41C271.994 509.649 272.173 509.897 272.278 510.154C272.387 510.411 272.464 510.633 272.51 510.819L272.621 510.849L272.968 509.598L274.44 510.007L272.25 517.896C272.066 518.559 271.761 519.061 271.335 519.401C270.908 519.741 270.404 519.94 269.821 519.998C269.242 520.057 268.624 519.996 267.967 519.814ZM269.178 515.392C269.611 515.512 270.004 515.513 270.358 515.395C270.716 515.274 271.024 515.046 271.284 514.711C271.547 514.372 271.753 513.937 271.901 513.404C272.045 512.885 272.095 512.406 272.05 511.968C272.006 511.53 271.865 511.159 271.629 510.855C271.393 510.548 271.055 510.334 270.617 510.212C270.164 510.086 269.755 510.099 269.388 510.25C269.023 510.397 268.708 510.649 268.443 511.005C268.181 511.361 267.982 511.786 267.846 512.279C267.705 512.784 267.659 513.25 267.707 513.674C267.755 514.099 267.9 514.46 268.142 514.758C268.387 515.057 268.733 515.269 269.178 515.392Z" fill="white"/>
<path d="M261.137 516.502L263.604 508.881L265.087 509.361L262.62 516.982L261.137 516.502ZM264.733 507.948C264.475 507.864 264.282 507.706 264.152 507.474C264.027 507.24 264.003 507.002 264.082 506.761C264.161 506.516 264.319 506.337 264.557 506.224C264.799 506.109 265.049 506.093 265.307 506.176C265.565 506.26 265.756 506.419 265.882 506.653C266.011 506.885 266.036 507.123 265.957 507.368C265.879 507.609 265.719 507.788 265.477 507.903C265.239 508.016 264.991 508.031 264.733 507.948Z" fill="white"/>
<path d="M261.526 508.666L261.107 509.845L256.984 508.379L257.404 507.199L261.526 508.666ZM259.153 505.785L260.622 506.307L258.082 513.446C257.981 513.731 257.947 513.961 257.981 514.135C258.016 514.306 258.091 514.442 258.207 514.542C258.327 514.64 258.467 514.718 258.628 514.775C258.746 514.817 258.852 514.846 258.946 514.861C259.04 514.876 259.114 514.887 259.166 514.895L259 516.203C258.903 516.205 258.77 516.195 258.602 516.172C258.431 516.152 258.228 516.101 257.991 516.021C257.602 515.89 257.266 515.693 256.983 515.43C256.701 515.167 256.51 514.848 256.41 514.473C256.311 514.099 256.343 513.684 256.505 513.228L259.153 505.785Z" fill="white"/>
<path d="M250.426 513.023L253.326 505.557L254.779 506.121L251.879 513.588L250.426 513.023ZM254.507 504.69C254.255 504.592 254.07 504.423 253.954 504.184C253.843 503.943 253.833 503.704 253.925 503.468C254.018 503.228 254.186 503.058 254.43 502.959C254.678 502.858 254.929 502.856 255.181 502.954C255.434 503.053 255.616 503.222 255.728 503.463C255.844 503.702 255.855 503.942 255.762 504.181C255.67 504.418 255.5 504.587 255.252 504.688C255.008 504.787 254.76 504.788 254.507 504.69Z" fill="white"/>
<path d="M240.128 497.918L241.95 498.626L242.113 507.596L242.229 507.641L248.406 501.135L250.228 501.843L246.36 511.798L244.931 511.242L247.73 504.039L247.638 504.003L241.908 510.051L240.722 509.59L240.582 501.255L240.489 501.22L237.688 508.428L236.259 507.873L240.128 497.918Z" fill="white"/>
<path d="M341.405 140.892C341.175 140.852 340.969 140.797 340.787 140.727C340.605 140.661 340.471 140.599 340.385 140.542L340.972 139.346C341.24 139.47 341.484 139.545 341.705 139.573C341.926 139.6 342.134 139.551 342.329 139.426C342.526 139.301 342.72 139.075 342.911 138.748L343.191 138.257L341.677 129.763L343.322 130.046L344.268 136.516L344.35 136.53L347.403 130.747L349.053 131.031L344.261 139.42C344.04 139.805 343.788 140.12 343.506 140.364C343.224 140.612 342.909 140.78 342.562 140.868C342.215 140.957 341.829 140.965 341.405 140.892Z" fill="white"/>
<path d="M334.719 137.141L336.175 129.264L337.657 129.538L337.426 130.789L337.508 130.805C337.73 130.407 338.044 130.121 338.451 129.945C338.863 129.766 339.299 129.72 339.761 129.805C339.856 129.823 339.969 129.847 340.097 129.878C340.229 129.909 340.332 129.937 340.405 129.961L340.134 131.428C340.076 131.399 339.97 131.36 339.817 131.311C339.664 131.258 339.509 131.217 339.351 131.188C338.989 131.121 338.652 131.138 338.34 131.239C338.031 131.338 337.77 131.507 337.556 131.747C337.343 131.983 337.205 132.272 337.142 132.614L336.253 137.424L334.719 137.141Z" fill="white"/>
<path d="M330.175 136.434C329.391 136.343 328.735 136.097 328.207 135.696C327.684 135.292 327.304 134.767 327.067 134.12C326.835 133.47 326.766 132.733 326.862 131.907C326.957 131.092 327.192 130.391 327.568 129.805C327.947 129.219 328.432 128.784 329.021 128.498C329.614 128.214 330.28 128.114 331.019 128.2C331.468 128.252 331.895 128.377 332.299 128.574C332.703 128.772 333.054 129.049 333.352 129.405C333.65 129.762 333.867 130.205 334.001 130.735C334.136 131.262 334.162 131.886 334.078 132.608L334.014 133.157L327.689 132.423L327.824 131.263L332.631 131.82C332.678 131.413 332.637 131.042 332.508 130.709C332.379 130.372 332.175 130.095 331.896 129.877C331.62 129.659 331.282 129.527 330.881 129.481C330.446 129.43 330.054 129.493 329.704 129.67C329.359 129.843 329.078 130.091 328.862 130.412C328.65 130.73 328.521 131.088 328.475 131.485L328.37 132.392C328.309 132.924 328.349 133.387 328.493 133.782C328.639 134.177 328.87 134.492 329.186 134.728C329.502 134.961 329.886 135.103 330.339 135.156C330.632 135.19 330.905 135.18 331.156 135.125C331.408 135.066 331.631 134.963 331.827 134.814C332.023 134.665 332.182 134.472 332.304 134.234L333.739 134.668C333.572 135.086 333.317 135.44 332.976 135.73C332.638 136.016 332.231 136.222 331.754 136.349C331.281 136.473 330.755 136.501 330.175 136.434Z" fill="white"/>
<path d="M327.068 127.527L323.611 135.315L321.946 135.198L319.603 127.004L321.273 127.121L322.866 133.412L322.949 133.418L325.398 127.41L327.068 127.527Z" fill="white"/>
<path d="M315.313 134.962C314.562 134.964 313.906 134.794 313.346 134.451C312.785 134.108 312.349 133.628 312.038 133.01C311.727 132.392 311.57 131.669 311.568 130.842C311.565 130.011 311.718 129.284 312.026 128.661C312.333 128.038 312.767 127.553 313.325 127.208C313.884 126.862 314.539 126.688 315.29 126.686C316.041 126.684 316.697 126.854 317.258 127.197C317.818 127.539 318.254 128.021 318.565 128.643C318.876 129.264 319.033 129.99 319.035 130.821C319.038 131.649 318.885 132.372 318.577 132.992C318.27 133.612 317.836 134.094 317.278 134.44C316.719 134.786 316.064 134.96 315.313 134.962ZM315.315 133.653C315.801 133.652 316.204 133.522 316.523 133.264C316.842 133.006 317.078 132.662 317.23 132.234C317.385 131.806 317.462 131.335 317.46 130.82C317.459 130.309 317.38 129.84 317.222 129.413C317.068 128.982 316.83 128.637 316.51 128.377C316.189 128.117 315.786 127.988 315.299 127.99C314.809 127.991 314.402 128.122 314.08 128.384C313.761 128.646 313.523 128.992 313.368 129.424C313.216 129.852 313.141 130.321 313.143 130.832C313.144 131.347 313.222 131.818 313.376 132.245C313.534 132.672 313.773 133.014 314.093 133.27C314.417 133.527 314.824 133.654 315.315 133.653Z" fill="white"/>
<path d="M307.166 134.802C306.392 134.838 305.717 134.693 305.142 134.368C304.57 134.04 304.12 133.571 303.793 132.964C303.465 132.356 303.283 131.651 303.246 130.848C303.208 130.036 303.328 129.312 303.605 128.676C303.882 128.037 304.29 127.529 304.829 127.152C305.369 126.776 306.015 126.57 306.769 126.536C307.377 126.507 307.924 126.595 308.41 126.799C308.896 126.999 309.294 127.294 309.605 127.684C309.918 128.073 310.115 128.535 310.196 129.071L308.68 129.141C308.579 128.77 308.373 128.456 308.062 128.199C307.754 127.941 307.352 127.824 306.856 127.847C306.422 127.867 306.047 127.999 305.731 128.244C305.418 128.484 305.181 128.819 305.02 129.247C304.859 129.672 304.791 130.17 304.817 130.739C304.844 131.323 304.956 131.822 305.153 132.238C305.35 132.653 305.615 132.97 305.948 133.188C306.286 133.405 306.675 133.504 307.116 133.484C307.411 133.47 307.676 133.404 307.911 133.285C308.149 133.163 308.344 132.995 308.498 132.783C308.655 132.57 308.76 132.318 308.813 132.027L310.329 131.957C310.297 132.477 310.15 132.947 309.888 133.366C309.625 133.785 309.263 134.122 308.802 134.377C308.343 134.631 307.798 134.773 307.166 134.802Z" fill="white"/>
<path d="M298.823 135.315C298.035 135.353 297.348 135.216 296.763 134.907C296.18 134.593 295.72 134.136 295.382 133.536C295.047 132.933 294.86 132.216 294.82 131.386C294.781 130.566 294.9 129.837 295.176 129.197C295.455 128.557 295.863 128.049 296.398 127.672C296.937 127.295 297.578 127.089 298.321 127.054C298.773 127.032 299.214 127.086 299.645 127.215C300.075 127.344 300.467 127.561 300.819 127.864C301.171 128.168 301.456 128.57 301.675 129.071C301.894 129.569 302.02 130.181 302.054 130.907L302.081 131.459L295.72 131.761L295.665 130.594L300.499 130.365C300.48 129.955 300.379 129.596 300.197 129.288C300.015 128.976 299.769 128.736 299.458 128.566C299.151 128.396 298.796 128.321 298.393 128.34C297.955 128.36 297.578 128.486 297.262 128.717C296.949 128.944 296.713 129.234 296.552 129.586C296.394 129.935 296.325 130.309 296.344 130.708L296.387 131.62C296.413 132.154 296.528 132.605 296.733 132.971C296.942 133.337 297.221 133.611 297.571 133.793C297.921 133.971 298.323 134.049 298.778 134.028C299.073 134.014 299.34 133.959 299.579 133.864C299.818 133.766 300.022 133.628 300.191 133.449C300.36 133.27 300.486 133.054 300.568 132.799L302.054 132.995C301.957 133.435 301.763 133.825 301.473 134.166C301.186 134.503 300.818 134.773 300.368 134.975C299.922 135.174 299.407 135.287 298.823 135.315Z" fill="white"/>
<path d="M287.018 137.19L285.604 126.604L289.378 126.1C290.198 125.991 290.897 126.041 291.476 126.252C292.058 126.461 292.517 126.798 292.853 127.262C293.188 127.722 293.399 128.278 293.486 128.93C293.572 129.577 293.512 130.166 293.306 130.695C293.102 131.22 292.747 131.655 292.238 132C291.734 132.345 291.071 132.572 290.251 132.681L287.393 133.063L287.209 131.688L289.923 131.326C290.44 131.257 290.85 131.126 291.154 130.935C291.462 130.743 291.673 130.496 291.787 130.193C291.901 129.89 291.931 129.54 291.878 129.144C291.825 128.744 291.701 128.408 291.507 128.136C291.316 127.864 291.047 127.672 290.699 127.56C290.353 127.445 289.917 127.423 289.39 127.493L287.384 127.761L288.615 136.977L287.018 137.19ZM291.606 131.716L294.859 136.143L293.04 136.386L289.838 131.952L291.606 131.716Z" fill="white"/>
<path d="M498.331 354.46C498.481 353.686 498.776 353.05 499.215 352.555C499.657 352.063 500.21 351.723 500.873 351.537C501.538 351.354 502.279 351.341 503.095 351.499C503.9 351.655 504.581 351.942 505.138 352.361C505.693 352.784 506.091 353.3 506.331 353.909C506.57 354.522 506.619 355.194 506.478 355.924C506.392 356.368 506.235 356.784 506.008 357.172C505.781 357.56 505.478 357.889 505.1 358.159C504.722 358.43 504.263 358.612 503.725 358.706C503.189 358.801 502.565 358.779 501.852 358.641L501.309 358.536L502.518 352.285L503.665 352.507L502.746 357.258C503.149 357.336 503.521 357.323 503.864 357.219C504.209 357.116 504.501 356.934 504.74 356.672C504.977 356.413 505.134 356.086 505.211 355.69C505.294 355.26 505.261 354.864 505.111 354.502C504.965 354.144 504.739 353.846 504.435 353.606C504.133 353.371 503.786 353.215 503.394 353.139L502.498 352.966C501.972 352.865 501.507 352.87 501.103 352.983C500.698 353.1 500.366 353.306 500.106 353.603C499.851 353.901 499.679 354.273 499.593 354.72C499.537 355.01 499.527 355.283 499.562 355.538C499.602 355.793 499.688 356.024 499.822 356.23C499.955 356.437 500.136 356.61 500.364 356.75L499.822 358.148C499.418 357.95 499.085 357.669 498.822 357.307C498.562 356.948 498.387 356.527 498.296 356.042C498.209 355.561 498.22 355.034 498.331 354.46Z" fill="white"/>
<path d="M504.983 349.874L505.037 348.439C505.226 348.42 505.414 348.364 505.601 348.273C505.787 348.185 505.954 348.047 506.101 347.858C506.249 347.67 506.357 347.417 506.425 347.101C506.518 346.67 506.499 346.289 506.368 345.958C506.24 345.628 506.025 345.43 505.722 345.365C505.461 345.308 505.229 345.36 505.028 345.519C504.826 345.678 504.628 345.963 504.432 346.372L503.878 347.554C503.556 348.239 503.183 348.72 502.76 348.999C502.337 349.277 501.849 349.356 501.295 349.237C500.826 349.135 500.438 348.909 500.129 348.558C499.824 348.211 499.619 347.774 499.516 347.247C499.413 346.723 499.429 346.145 499.566 345.513C499.755 344.636 500.097 343.961 500.59 343.488C501.087 343.015 501.696 342.791 502.416 342.815L502.322 344.337C501.918 344.346 501.587 344.471 501.328 344.714C501.073 344.958 500.895 345.309 500.796 345.768C500.688 346.267 500.706 346.689 500.848 347.033C500.994 347.377 501.219 347.582 501.521 347.648C501.766 347.701 501.991 347.653 502.197 347.506C502.403 347.362 502.588 347.112 502.754 346.756L503.331 345.494C503.655 344.799 504.037 344.316 504.476 344.045C504.915 343.777 505.413 343.703 505.97 343.823C506.432 343.923 506.809 344.14 507.1 344.473C507.39 344.806 507.583 345.221 507.679 345.718C507.777 346.216 507.763 346.759 507.636 347.347C507.453 348.193 507.126 348.82 506.654 349.226C506.185 349.634 505.628 349.849 504.983 349.874Z" fill="white"/>
<path d="M505.986 335.066L501.246 334.678L501.373 333.124L509.357 333.778L509.234 335.27L507.935 335.163L507.927 335.262C508.335 335.48 508.651 335.796 508.875 336.208C509.099 336.624 509.186 337.132 509.137 337.732C509.093 338.276 508.939 338.743 508.677 339.133C508.418 339.523 508.056 339.813 507.591 340.001C507.125 340.19 506.564 340.257 505.905 340.203L500.827 339.787L500.955 338.233L505.845 338.634C506.424 338.681 506.889 338.568 507.239 338.293C507.593 338.018 507.791 337.618 507.835 337.091C507.864 336.731 507.812 336.404 507.679 336.11C507.546 335.82 507.336 335.582 507.048 335.394C506.763 335.21 506.409 335.101 505.986 335.066Z" fill="white"/>
<path d="M501.758 327.234C501.803 326.484 502.014 325.84 502.392 325.302C502.769 324.764 503.276 324.36 503.912 324.088C504.548 323.816 505.28 323.705 506.105 323.755C506.935 323.805 507.651 324.003 508.253 324.35C508.856 324.696 509.312 325.159 509.622 325.738C509.932 326.318 510.064 326.982 510.019 327.732C509.974 328.481 509.763 329.125 509.385 329.663C509.008 330.201 508.5 330.606 507.86 330.877C507.22 331.149 506.485 331.259 505.656 331.209C504.83 331.16 504.118 330.962 503.518 330.616C502.919 330.269 502.465 329.807 502.155 329.227C501.845 328.648 501.713 327.983 501.758 327.234ZM503.064 327.318C503.035 327.804 503.139 328.214 503.377 328.549C503.614 328.883 503.942 329.14 504.359 329.318C504.777 329.5 505.242 329.607 505.756 329.638C506.266 329.668 506.739 329.619 507.176 329.488C507.615 329.361 507.975 329.146 508.254 328.843C508.534 328.539 508.688 328.144 508.717 327.659C508.747 327.169 508.641 326.755 508.4 326.417C508.159 326.082 507.828 325.823 507.408 325.641C506.99 325.463 506.526 325.358 506.016 325.328C505.502 325.297 505.027 325.345 504.591 325.472C504.155 325.602 503.799 325.819 503.523 326.123C503.247 326.43 503.094 326.828 503.064 327.318Z" fill="white"/>
<path d="M499.558 314.49L510.572 314.497L510.571 316.02L509.272 316.019L509.272 316.15C509.439 316.24 509.632 316.371 509.851 316.541C510.07 316.712 510.261 316.948 510.424 317.251C510.591 317.553 510.674 317.953 510.674 318.45C510.673 319.097 510.509 319.674 510.182 320.181C509.855 320.689 509.384 321.087 508.768 321.375C508.153 321.666 507.412 321.812 506.547 321.811C505.681 321.811 504.939 321.666 504.32 321.377C503.705 321.088 503.231 320.692 502.897 320.187C502.567 319.683 502.402 319.107 502.403 318.461C502.403 317.974 502.485 317.576 502.649 317.267C502.812 316.961 503.004 316.721 503.223 316.547C503.442 316.374 503.637 316.24 503.807 316.146L503.807 316.052L499.557 316.05L499.558 314.49ZM506.566 316.023C506.003 316.022 505.509 316.104 505.085 316.267C504.66 316.43 504.328 316.666 504.088 316.976C503.852 317.285 503.733 317.664 503.733 318.112C503.733 318.578 503.856 318.968 504.102 319.281C504.352 319.594 504.691 319.83 505.119 319.99C505.546 320.154 506.028 320.236 506.563 320.236C507.092 320.237 507.566 320.157 507.987 319.998C508.408 319.841 508.74 319.605 508.983 319.289C509.227 318.976 509.349 318.585 509.349 318.116C509.35 317.664 509.233 317.281 509.001 316.968C508.768 316.659 508.443 316.424 508.026 316.264C507.609 316.103 507.122 316.023 506.566 316.023Z" fill="white"/>
<path d="M507.485 312.415L507.313 310.99C507.497 310.941 507.674 310.857 507.844 310.738C508.014 310.622 508.157 310.459 508.273 310.249C508.389 310.04 508.456 309.774 508.474 309.451C508.498 309.01 508.419 308.637 508.238 308.331C508.06 308.025 507.816 307.864 507.507 307.846C507.24 307.832 507.019 307.919 506.845 308.108C506.671 308.297 506.52 308.609 506.391 309.044L506.03 310.298C505.819 311.025 505.527 311.559 505.153 311.9C504.779 312.242 504.309 312.397 503.743 312.366C503.264 312.339 502.845 312.177 502.485 311.879C502.129 311.584 501.858 311.184 501.674 310.68C501.489 310.179 501.415 309.605 501.45 308.959C501.499 308.064 501.731 307.344 502.144 306.799C502.56 306.254 503.126 305.937 503.841 305.848L503.987 307.365C503.59 307.437 503.283 307.614 503.065 307.894C502.851 308.175 502.731 308.55 502.706 309.018C502.677 309.528 502.761 309.942 502.956 310.259C503.154 310.577 503.408 310.744 503.717 310.761C503.967 310.775 504.182 310.692 504.362 310.514C504.543 310.34 504.687 310.064 504.794 309.687L505.166 308.349C505.377 307.612 505.678 307.075 506.069 306.738C506.46 306.405 506.94 306.254 507.51 306.285C507.982 306.311 508.388 306.466 508.727 306.749C509.067 307.032 509.323 307.412 509.495 307.888C509.671 308.364 509.742 308.903 509.709 309.503C509.661 310.368 509.436 311.038 509.034 311.513C508.635 311.989 508.119 312.29 507.485 312.415Z" fill="white"/>
<path d="M500.024 300.812C499.955 300.026 500.063 299.334 500.349 298.737C500.639 298.142 501.077 297.664 501.663 297.302C502.252 296.943 502.961 296.727 503.788 296.654C504.606 296.582 505.34 296.671 505.99 296.92C506.64 297.174 507.165 297.56 507.563 298.08C507.962 298.603 508.194 299.235 508.259 299.977C508.299 300.427 508.263 300.87 508.151 301.305C508.039 301.741 507.839 302.141 507.55 302.505C507.261 302.869 506.87 303.17 506.378 303.409C505.89 303.648 505.284 303.799 504.56 303.862L504.009 303.911L503.45 297.568L504.614 297.466L505.039 302.286C505.447 302.25 505.802 302.135 506.102 301.941C506.406 301.747 506.637 301.491 506.794 301.174C506.951 300.86 507.012 300.502 506.977 300.1C506.938 299.664 506.797 299.292 506.554 298.986C506.314 298.682 506.015 298.457 505.657 298.311C505.302 298.168 504.926 298.113 504.527 298.149L503.618 298.229C503.085 298.276 502.64 298.409 502.282 298.629C501.925 298.853 501.662 299.143 501.495 299.499C501.331 299.856 501.269 300.261 501.309 300.715C501.335 301.009 501.4 301.274 501.505 301.509C501.612 301.744 501.759 301.942 501.944 302.104C502.13 302.265 502.351 302.382 502.609 302.453L502.473 303.947C502.03 303.867 501.632 303.689 501.28 303.413C500.931 303.14 500.647 302.783 500.426 302.342C500.21 301.904 500.076 301.394 500.024 300.812Z" fill="white"/>
<path d="M496.438 287.784L506.989 286.124L507.58 289.885C507.709 290.702 507.675 291.403 507.478 291.986C507.282 292.573 506.956 293.04 506.5 293.386C506.047 293.732 505.497 293.955 504.848 294.058C504.202 294.159 503.612 294.113 503.078 293.919C502.549 293.728 502.105 293.382 501.749 292.882C501.393 292.386 501.15 291.729 501.022 290.911L500.573 288.063L501.944 287.847L502.369 290.552C502.45 291.067 502.59 291.474 502.788 291.774C502.987 292.077 503.24 292.282 503.545 292.388C503.85 292.495 504.201 292.518 504.596 292.455C504.994 292.393 505.327 292.261 505.595 292.061C505.863 291.864 506.048 291.59 506.152 291.239C506.259 290.892 506.271 290.455 506.188 289.93L505.874 287.931L496.689 289.376L496.438 287.784ZM502.018 292.243L497.668 295.599L497.382 293.785L501.741 290.481L502.018 292.243Z" fill="white"/>
<circle opacity="0.1" cx="365.456" cy="97.0787" r="8.12013" transform="rotate(0.955662 365.456 97.0787)" fill="#3DA229"/>
<circle opacity="0.2" cx="415.777" cy="117.071" r="8.12013" transform="rotate(0.955662 415.777 117.071)" fill="#3DA229"/>
<circle opacity="0.2" cx="458.513" cy="143.954" r="8.12013" transform="rotate(0.955662 458.513 143.954)" fill="#3DA229"/>
<circle opacity="0.2" cx="495.736" cy="181.176" r="8.12013" transform="rotate(0.955662 495.736 181.176)" fill="#3DA229"/>
<circle opacity="0.2" cx="523.31" cy="225.981" r="8.12013" transform="rotate(0.955662 523.31 225.981)" fill="#3DA229"/>
<circle cx="540.542" cy="275.614" r="8.12013" transform="rotate(0.955662 540.542 275.614)" fill="#3DA229"/>
<circle cx="546.056" cy="320.418" r="8.12013" transform="rotate(0.955662 546.056 320.418)" fill="#3DA229"/>
<circle cx="540.542" cy="368.668" r="8.12013" transform="rotate(0.955662 540.542 368.668)" fill="#3DA229"/>
<circle opacity="0.2" cx="523.997" cy="430.02" r="8.12013" transform="rotate(0.955662 523.997 430.02)" fill="#3DA229"/>
<circle opacity="0.2" cx="495.736" cy="474.133" r="8.12013" transform="rotate(0.955662 495.736 474.133)" fill="#3DA229"/>
<circle opacity="0.2" cx="457.823" cy="511.356" r="8.12013" transform="rotate(0.955662 457.823 511.356)" fill="#3DA229"/>
<circle cx="381.999" cy="556.165" r="8.12013" transform="rotate(0.955662 381.999 556.165)" fill="#3DA229"/>
<circle cx="328.923" cy="563.747" r="8.12013" transform="rotate(0.955662 328.923 563.747)" fill="#3DA229"/>
<circle cx="275.845" cy="559.61" r="8.12013" transform="rotate(0.955662 275.845 559.61)" fill="#3DA229"/>
<circle opacity="0.2" cx="203.466" cy="538.243" r="8.12013" transform="rotate(0.955662 203.466 538.243)" fill="#3DA229"/>
<circle opacity="0.2" cx="158.661" cy="508.602" r="8.12013" transform="rotate(0.955662 158.661 508.602)" fill="#3DA229"/>
<circle opacity="0.2" cx="121.888" cy="469.262" r="8.12013" transform="rotate(0.955662 121.888 469.262)" fill="#3DA229"/>
<circle opacity="0.2" cx="95.2453" cy="422.438" r="8.12013" transform="rotate(0.955662 95.2453 422.438)" fill="#3DA229"/>
<circle cx="78.7004" cy="370.739" r="8.12013" transform="rotate(0.955662 78.7004 370.739)" fill="#3DA229"/>
<circle cx="75.2551" cy="322.485" r="8.12013" transform="rotate(0.955662 75.2551 322.485)" fill="#3DA229"/>
<circle cx="80.7687" cy="274.235" r="8.12013" transform="rotate(0.955662 80.7687 274.235)" fill="#3DA229"/>
<circle opacity="0.2" cx="103.517" cy="217.711" r="8.12013" transform="rotate(0.955662 103.517 217.711)" fill="#3DA229"/>
<circle opacity="0.2" cx="129.71" cy="177.731" r="8.12013" transform="rotate(0.955662 129.71 177.731)" fill="#3DA229"/>
<circle opacity="0.2" cx="166.243" cy="142.575" r="8.12013" transform="rotate(0.955662 166.243 142.575)" fill="#3DA229"/>
<circle opacity="0.2" cx="211.739" cy="114.313" r="8.12013" transform="rotate(0.955662 211.739 114.313)" fill="#3DA229"/>
<circle opacity="0.1" cx="271.708" cy="95.0122" r="8.12013" transform="rotate(0.955662 271.708 95.0122)" fill="#3DA229"/>
<circle opacity="0.1" cx="318.583" cy="92.2544" r="8.12013" transform="rotate(0.955662 318.583 92.2544)" fill="#3DA229"/>
</g>
<defs>
<filter id="filter0_i_3114_9671" x="195" y="212" width="231" height="231" filterUnits="userSpaceOnUse" color-interpolation-filters="sRGB">
<feFlood flood-opacity="0" result="BackgroundImageFix"/>
<feBlend mode="normal" in="SourceGraphic" in2="BackgroundImageFix" result="shape"/>
<feColorMatrix in="SourceAlpha" type="matrix" values="0 0 0 0 0 0 0 0 0 0 0 0 0 0 0 0 0 0 127 0" result="hardAlpha"/>
<feOffset/>
<feGaussianBlur stdDeviation="4.23958"/>
<feComposite in2="hardAlpha" operator="arithmetic" k2="-1" k3="1"/>
<feColorMatrix type="matrix" values="0 0 0 0 0.253337 0 0 0 0 0.0598542 0 0 0 0 0 0 0 0 1 0"/>
<feBlend mode="normal" in2="shape" result="effect1_innerShadow_3114_9671"/>
</filter>
<filter id="filter1_f_3114_9671" x="201.874" y="214.753" width="218.167" height="221.835" filterUnits="userSpaceOnUse" color-interpolation-filters="sRGB">
<feFlood flood-opacity="0" result="BackgroundImageFix"/>
<feBlend mode="normal" in="SourceGraphic" in2="BackgroundImageFix" result="shape"/>
<feGaussianBlur stdDeviation="4.69792" result="effect1_foregroundBlur_3114_9671"/>
</filter>
<clipPath id="clip0_3114_9671">
<rect width="1279" height="656" fill="white"/>
</clipPath>
</defs>
</svg>
